<svg width="424" height="424" viewBox="0 0 424 424" fill="none" xmlns="http://www.w3.org/2000/svg">
<rect x="6" y="6" width="412" height="412" rx="206" fill="#000C17"/>
<g opacity="0.3">
<path opacity="0.2" d="M12 212.37C71.0597 218.174 95.4818 318 201.057 318C222.225 318 237.097 317.621 237.097 317.621V285.001C226.691 285.001 214.052 284.954 201.057 284.954C169.888 284.954 123.848 266.95 123.848 212.607C123.848 162.409 168.035 139.123 201.057 139.81C221.726 140.26 237.097 139.739 237.097 139.739V107.142C237.097 107.142 224.981 107 201.057 107C95.1729 107.924 72.3901 206.613 12 212.37Z" fill="url(#paint0_linear_32_5883)"/>
<path opacity="0.5" d="M40.6271 212.37C99.6867 218.174 124.109 318 229.685 318C250.852 318 265.724 317.621 265.724 317.621V285.001C255.318 285.001 242.68 284.954 229.685 284.954C198.515 284.954 152.475 266.95 152.475 212.607C152.475 162.409 196.662 139.123 229.685 139.81C250.353 140.26 265.724 139.739 265.724 139.739V107.142C265.724 107.142 253.608 107 229.685 107C123.8 107.924 101.017 206.613 40.6271 212.37Z" fill="url(#paint1_linear_32_5883)"/>
<path d="M69.2779 212.37C128.338 218.174 152.76 318 258.335 318C279.503 318 294.375 317.621 294.375 317.621V285.001C283.969 285.001 271.33 284.954 258.335 284.954C227.166 284.954 181.125 266.95 181.125 212.607C181.125 162.409 225.313 139.123 258.335 139.81C279.004 140.26 294.375 139.739 294.375 139.739V107.142C294.375 107.142 282.259 107 258.335 107C152.427 107.924 129.668 206.613 69.2779 212.37Z" fill="url(#paint2_linear_32_5883)"/>
<path d="M276.961 107C300.86 107 313 107.142 313 107.142V139.739C313 139.739 297.629 140.26 276.961 139.81C243.939 139.099 199.751 162.385 199.751 212.607C199.751 266.95 245.792 284.954 276.961 284.954C289.956 284.954 302.571 285.001 313 285.001V317.621C313 317.621 298.128 318 276.961 318C171.385 318 146.963 218.174 87.9033 212.37C148.293 206.613 171.076 107.924 276.961 107ZM276.961 107C300.86 107 313 107.142 313 107.142V139.739C313 139.739 297.629 140.26 276.961 139.81C243.939 139.099 199.751 162.385 199.751 212.607C199.751 266.95 245.792 284.954 276.961 284.954C289.956 284.954 302.571 285.001 313 285.001V317.621C313 317.621 298.128 318 276.961 318C171.385 318 146.963 218.174 87.9033 212.37C148.293 206.613 171.076 107.924 276.961 107Z" fill="#F4FFFF"/>
</g>
<rect x="6" y="6" width="412" height="412" rx="206" stroke="#FAFFFF" stroke-width="12"/>
<defs>
<linearGradient id="paint0_linear_32_5883" x1="12" y1="212.512" x2="237.097" y2="212.512" gradientUnits="userSpaceOnUse">
<stop offset="0.04" stop-color="#00B3B3"/>
<stop offset="0.13" stop-color="#00B3B3"/>
<stop offset="0.48" stop-color="#0C69BF"/>
<stop offset="1" stop-color="#141C64"/>
</linearGradient>
<linearGradient id="paint1_linear_32_5883" x1="40.6271" y1="107" x2="265.724" y2="107" gradientUnits="userSpaceOnUse">
<stop offset="0.04" stop-color="#00B3B3"/>
<stop offset="0.13" stop-color="#00B3B3"/>
<stop offset="0.48" stop-color="#0C69BF"/>
<stop offset="1" stop-color="#141C64"/>
</linearGradient>
<linearGradient id="paint2_linear_32_5883" x1="69.2779" y1="107" x2="294.375" y2="107" gradientUnits="userSpaceOnUse">
<stop offset="0.04" stop-color="#00B3B3"/>
<stop offset="0.13" stop-color="#00B3B3"/>
<stop offset="0.48" stop-color="#0C69BF"/>
<stop offset="1" stop-color="#141C64"/>
</linearGradient>
</defs>
</svg>
