<svg width="763" height="166" viewBox="0 0 763 166" fill="none" xmlns="http://www.w3.org/2000/svg">
<g clip-path="url(#clip0_11_357)">
<path opacity="0.2" d="M762.82 80.79C737.96 83.29 727.68 127.33 683.24 127.33C674.33 127.33 668.07 127.17 668.07 127.17V113.09C672.45 113.09 677.77 113.07 683.24 113.07C696.36 113.07 715.74 105.3 715.74 81.85C715.74 60.18 697.14 50.13 683.24 50.44C674.54 50.63 668.07 50.41 668.07 50.41V36.34C668.07 36.34 673.17 36.28 683.24 36.28C727.82 36.68 737.4 78.32 762.82 80.81V80.79Z" fill="url(#paint0_linear_11_357)"/>
<path opacity="0.5" d="M750.77 80.79C725.91 83.29 715.63 127.33 671.19 127.33C662.28 127.33 656.02 127.17 656.02 127.17V113.09C660.4 113.09 665.72 113.07 671.19 113.07C684.31 113.07 703.69 105.3 703.69 81.85C703.69 60.18 685.09 50.13 671.19 50.44C662.49 50.63 656.02 50.41 656.02 50.41V36.34C656.02 36.34 661.12 36.28 671.19 36.28C715.77 36.68 725.35 78.32 750.77 80.81V80.79Z" fill="url(#paint1_linear_11_357)"/>
<path d="M738.72 80.79C713.86 83.29 703.58 127.33 659.14 127.33C650.23 127.33 643.97 127.17 643.97 127.17V113.09C648.35 113.09 653.67 113.07 659.14 113.07C672.26 113.07 691.64 105.3 691.64 81.85C691.64 60.18 674.13 46.95 660.24 47.25C651.54 47.44 654.5 45.13 654.5 45.13L653.9 43.17C653.9 43.17 649.09 36.26 659.15 36.26C703.73 36.66 713.31 78.3 738.73 80.79H738.72Z" fill="url(#paint2_linear_11_357)"/>
<path opacity="0.2" d="M0 82.74C24.86 85.19 35.14 127.33 79.58 127.33C88.49 127.33 94.75 127.17 94.75 127.17V113.4C90.37 113.4 85.05 113.38 79.58 113.38C66.46 113.38 47.08 105.78 47.08 82.84C47.08 61.65 65.68 51.82 79.58 52.11C88.28 52.3 94.75 52.08 94.75 52.08V38.32C94.75 38.32 89.65 38.26 79.58 38.26C35 38.65 25.42 80.31 0 82.74Z" fill="url(#paint3_linear_11_357)"/>
<path opacity="0.5" d="M12.05 82.74C36.91 85.19 47.19 127.33 91.63 127.33C100.54 127.33 106.8 127.17 106.8 127.17V113.4C102.42 113.4 97.1 113.38 91.63 113.38C78.51 113.38 59.13 105.78 59.13 82.84C59.13 61.65 77.73 51.82 91.63 52.11C100.33 52.3 106.8 52.08 106.8 52.08V38.32C106.8 38.32 101.7 38.26 91.63 38.26C47.05 38.65 37.47 80.31 12.05 82.74Z" fill="url(#paint4_linear_11_357)"/>
<path d="M24.11 82.74C48.97 85.19 59.25 127.33 103.69 127.33C112.6 127.33 118.86 127.17 118.86 127.17V113.4C114.48 113.4 109.16 113.38 103.69 113.38C90.57 113.38 71.19 105.78 71.19 82.84C71.19 61.65 89.79 51.82 103.69 52.11C112.39 52.3 118.86 52.08 118.86 52.08V38.32C118.86 38.32 113.76 38.26 103.69 38.26C59.11 38.65 49.53 80.31 24.11 82.74Z" fill="url(#paint5_linear_11_357)"/>
<path d="M670.99 123.67C672.62 123.09 674.2 122.42 675.72 121.68C679.68 119.75 683.2 117.41 686.24 114.65C681.6 118.25 676.56 121.41 670.98 123.66L670.99 123.67Z" fill="#E6E6E6"/>
<path d="M670.99 123.67C665.58 125.85 659.64 127.17 653.08 127.17L653.18 127.1C659.64 126.8 665.58 125.66 670.99 123.67Z" fill="#E6E6E6"/>
<path d="M632.18 76.82C632.18 74.61 632.41 72.26 632.88 69.76C633.34 67.26 634.16 64.82 635.32 62.44C636.48 60.06 638.02 57.91 639.94 55.99C641.86 54.07 644.24 52.53 647.08 51.37C649.92 50.21 653.26 49.63 657.1 49.63C661.17 49.63 664.74 50.41 667.81 51.98C670.89 53.55 673.53 55.64 675.74 58.25C677.95 60.86 679.63 63.8 680.79 67.05C681.95 70.3 682.65 73.55 682.88 76.81H632.19L632.18 76.82ZM208.69 42.33C201.95 38.27 193.88 36.23 184.48 36.23C175.08 36.23 166.36 38.29 159.39 42.41C152.42 46.53 147.08 52.11 143.36 59.13C139.64 66.16 137.79 74.02 137.79 82.73C137.79 91.44 139.47 99.16 142.84 106.25C146.21 113.33 151.03 118.94 157.3 123.06C163.57 127.18 171 129.24 179.6 129.24C185.52 129.24 190.69 128.25 195.1 126.28C199.51 124.31 203.2 121.78 206.16 118.7C209.12 115.62 211.47 112.4 213.22 109.03H213.57V127.15H229.77V82.21C229.77 73.62 227.94 65.83 224.28 58.87C220.62 51.9 215.42 46.39 208.69 42.32V42.33ZM209.65 99.38C207.15 104.43 203.67 108.38 199.2 111.23C194.73 114.08 189.59 115.5 183.78 115.5C177.51 115.5 172.17 114.05 167.75 111.14C163.33 108.23 159.97 104.32 157.65 99.38C155.33 94.44 154.17 88.96 154.17 82.92C154.17 76.88 155.36 71.05 157.74 66.11C160.12 61.17 163.55 57.25 168.02 54.35C172.49 51.45 177.86 49.99 184.13 49.99C190.05 49.99 195.22 51.41 199.63 54.26C204.04 57.11 207.44 60.97 209.82 65.84C212.2 70.71 213.39 76.23 213.39 82.39C213.39 88.55 212.14 94.32 209.64 99.37L209.65 99.38ZM258.69 0H274.72V127.17H258.69V0ZM303.63 0H319.66V127.17H303.63V0ZM364.34 5.84C366.49 7.99 367.56 10.51 367.56 13.42C367.56 16.33 366.49 18.85 364.34 21C362.19 23.15 359.67 24.22 356.76 24.22C353.85 24.22 351.33 23.15 349.18 21C347.03 18.85 345.96 16.33 345.96 13.42C345.96 10.51 347.03 7.99 349.18 5.84C351.33 3.69 353.85 2.62 356.76 2.62C359.67 2.62 362.19 3.69 364.34 5.84ZM348.57 38.33H364.77V127.17H348.57V38.32V38.33ZM459.45 42.42C452.42 38.3 444.38 36.24 435.32 36.24C426.26 36.24 418.25 38.3 411.28 42.42C404.31 46.54 398.8 52.12 394.73 59.14C390.67 66.17 388.63 74.03 388.63 82.74C388.63 91.45 390.66 99.32 394.73 106.34C398.79 113.37 404.31 118.94 411.28 123.06C418.25 127.18 426.26 129.24 435.32 129.24C444.38 129.24 452.42 127.18 459.45 123.06C466.48 118.94 471.99 113.36 476 106.34C480.01 99.31 482.01 91.45 482.01 82.74C482.01 74.03 480.01 66.16 476 59.14C471.99 52.11 466.48 46.54 459.45 42.42ZM461.98 99.89C459.43 104.97 455.88 109.02 451.35 112.01C446.82 115 441.54 116.5 435.5 116.5C429.46 116.5 423.97 115 419.39 112.01C414.8 109.02 411.23 104.97 408.68 99.89C406.13 94.81 404.85 89.09 404.85 82.75C404.85 76.41 406.13 70.69 408.68 65.61C411.23 60.51 414.81 56.48 419.39 53.49C423.98 50.5 429.35 49 435.5 49C441.65 49 446.82 50.5 451.35 53.49C455.88 56.48 459.42 60.52 461.98 65.61C464.53 70.69 465.81 76.41 465.81 82.75C465.81 89.09 464.53 94.81 461.98 99.89ZM583.92 48.95C579.86 44.77 575.04 41.6 569.46 39.46C563.89 37.31 557.73 36.24 550.99 36.24C542.4 36.24 534.67 38.1 527.82 41.81C520.97 45.53 515.54 50.87 511.53 57.84C507.52 64.81 505.52 73.29 505.52 83.27V165.49H521.55V111.31H521.9C523.87 114.79 526.46 117.9 529.65 120.63C532.84 123.36 536.5 125.48 540.62 126.99C544.74 128.5 549.07 129.25 553.6 129.25C561.85 129.25 569.22 127.39 575.72 123.68C582.22 119.96 587.36 114.68 591.14 107.83C594.91 100.98 596.8 92.96 596.8 83.79C596.8 76.47 595.67 69.88 593.4 64.02C591.14 58.16 587.97 53.13 583.91 48.95H583.92ZM576.69 99.82C574.08 104.7 570.56 108.53 566.15 111.32C561.74 114.11 556.74 115.5 551.17 115.5C545.6 115.5 540.75 114.16 536.28 111.49C531.81 108.82 528.27 105.02 525.65 100.08C523.04 95.14 521.73 89.31 521.73 82.57C521.73 75.83 523.04 70.2 525.65 65.32C528.26 60.44 531.81 56.67 536.28 54C540.75 51.33 545.66 49.99 551 49.99C556.34 49.99 561.42 51.33 565.89 54C570.36 56.67 573.93 60.45 576.6 65.32C579.27 70.2 580.61 76 580.61 82.74C580.61 89.48 579.3 94.93 576.69 99.81V99.82ZM679.38 42.33C678.99 42.07 678.58 41.82 678.17 41.59C672.06 38.02 665.03 36.23 657.08 36.23C656.53 36.23 655.96 36.24 655.43 36.26C646.98 36.48 639.9 38.45 634.18 42.15C628.08 46.1 623.52 51.41 620.5 58.09C617.48 64.77 615.97 72.23 615.97 80.48C615.97 81.76 616 83.09 616.06 84.49C616.12 85.88 616.26 87.1 616.5 88.15H682.7C682.12 93.61 680.32 98.22 677.3 102C674.28 105.77 670.42 108.62 665.72 110.54C661.02 112.46 655.82 113.41 650.13 113.41H626.96V127.17H649.78C650.94 127.17 652.07 127.14 653.19 127.1C659.65 126.8 665.59 125.66 671 123.67C676.57 121.42 681.61 118.26 686.26 114.66C703.94 100.94 715.95 80.86 730.03 80.86C714.15 80.86 700.97 55.47 679.4 42.33H679.38ZM111.53 38.26C121.59 38.26 126.7 38.32 126.7 38.32V52.08C126.7 52.08 120.23 52.3 111.53 52.11C97.63 51.81 79.03 61.64 79.03 82.84C79.03 105.78 98.41 113.38 111.53 113.38C117 113.38 122.31 113.4 126.7 113.4V127.17C126.7 127.17 120.44 127.33 111.53 127.33C67.09 127.33 56.81 85.19 31.95 82.74C57.37 80.31 66.96 38.64 111.53 38.26ZM111.53 38.26C121.59 38.26 126.7 38.32 126.7 38.32V52.08C126.7 52.08 120.23 52.3 111.53 52.11C97.63 51.81 79.03 61.64 79.03 82.84C79.03 105.78 98.41 113.38 111.53 113.38C117 113.38 122.31 113.4 126.7 113.4V127.17C126.7 127.17 120.44 127.33 111.53 127.33C67.09 127.33 56.81 85.19 31.95 82.74C57.37 80.31 66.96 38.64 111.53 38.26Z" fill="#F4FFFF"/>
</g>
<defs>
<linearGradient id="paint0_linear_11_357" x1="762.83" y1="81.8" x2="668.08" y2="81.8" gradientUnits="userSpaceOnUse">
<stop offset="0.04" stop-color="#00B3B3"/>
<stop offset="0.13" stop-color="#00B3B3"/>
<stop offset="0.48" stop-color="#0C69BF"/>
<stop offset="1" stop-color="#141C64"/>
</linearGradient>
<linearGradient id="paint1_linear_11_357" x1="750.78" y1="81.8" x2="656.03" y2="81.8" gradientUnits="userSpaceOnUse">
<stop offset="0.04" stop-color="#00B3B3"/>
<stop offset="0.13" stop-color="#00B3B3"/>
<stop offset="0.48" stop-color="#0C69BF"/>
<stop offset="1" stop-color="#141C64"/>
</linearGradient>
<linearGradient id="paint2_linear_11_357" x1="738.72" y1="81.8" x2="643.97" y2="81.8" gradientUnits="userSpaceOnUse">
<stop offset="0.04" stop-color="#00B3B3"/>
<stop offset="0.13" stop-color="#00B3B3"/>
<stop offset="0.48" stop-color="#0C69BF"/>
<stop offset="1" stop-color="#141C64"/>
</linearGradient>
<linearGradient id="paint3_linear_11_357" x1="0" y1="82.79" x2="94.75" y2="82.79" gradientUnits="userSpaceOnUse">
<stop offset="0.04" stop-color="#00B3B3"/>
<stop offset="0.13" stop-color="#00B3B3"/>
<stop offset="0.48" stop-color="#0C69BF"/>
<stop offset="1" stop-color="#141C64"/>
</linearGradient>
<linearGradient id="paint4_linear_11_357" x1="12.05" y1="82.79" x2="106.8" y2="82.79" gradientUnits="userSpaceOnUse">
<stop offset="0.04" stop-color="#00B3B3"/>
<stop offset="0.13" stop-color="#00B3B3"/>
<stop offset="0.48" stop-color="#0C69BF"/>
<stop offset="1" stop-color="#141C64"/>
</linearGradient>
<linearGradient id="paint5_linear_11_357" x1="24.11" y1="82.79" x2="118.86" y2="82.79" gradientUnits="userSpaceOnUse">
<stop offset="0.04" stop-color="#00B3B3"/>
<stop offset="0.13" stop-color="#00B3B3"/>
<stop offset="0.48" stop-color="#0C69BF"/>
<stop offset="1" stop-color="#141C64"/>
</linearGradient>
<clipPath id="clip0_11_357">
<rect width="762.82" height="165.49" fill="white"/>
</clipPath>
</defs>
</svg>
