<!DOCTYPE svg PUBLIC "-//W3C//DTD SVG 1.1//EN" "http://www.w3.org/Graphics/SVG/1.1/DTD/svg11.dtd"> <svg width="521px" height="521px" version="1.1" baseProfile="full" xmlns="http://www.w3.org/2000/svg" xmlns:xlink="http://www.w3.org/1999/xlink" xmlns:ev="http://www.w3.org/2001/xml-events"><polygon fill="rgb(228,119,25)" stroke="rgb(228,119,25)" points="117.3888258934021,293.4512888789177 79.26031386852264,282.258513212204 56.16037130355835,229.95081477612257"></polygon><polygon fill="rgb(247,132,25)" stroke="rgb(247,132,25)" points="84.96629190444946,211.94611505791545 56.16037130355835,229.95081477612257 62.04022407531738,182.02815710380673"></polygon><polygon fill="rgb(247,132,25)" stroke="rgb(247,132,25)" points="81.29330170154572,257.2467910647392 56.16037130355835,229.95081477612257 84.96629190444946,211.94611505791545"></polygon><polygon fill="rgb(192,172,157)" stroke="rgb(192,172,157)" points="226.49436110258102,293.60734194517136 233.5630689561367,281.43490563333035 206.5023187994957,332.3715085685253"></polygon><polygon fill="rgb(119,57,0)" stroke="rgb(119,57,0)" points="62.04022407531738,182.02815710380673 48.035961270332336,167.34075905382633 53.3717075586319,162.94751915335655"></polygon><polygon fill="rgb(119,57,0)" stroke="rgb(119,57,0)" points="53.3717075586319,162.94751915335655 101.19126069545746,157.41631656885147 62.04022407531738,182.02815710380673"></polygon><polygon fill="rgb(119,57,0)" stroke="rgb(119,57,0)" points="62.04022407531738,182.02815710380673 101.19126069545746,157.41631656885147 115.9938508272171,170.81664242595434"></polygon><polygon fill="rgb(119,57,0)" stroke="rgb(119,57,0)" points="53.3717075586319,162.94751915335655 50.24005043506622,149.06774553656578 101.19126069545746,157.41631656885147"></polygon><polygon fill="rgb(119,57,0)" stroke="rgb(119,57,0)" points="101.19126069545746,157.41631656885147 50.24005043506622,149.06774553656578 46.344066739082336,137.38632521033287"></polygon><polygon fill="rgb(119,57,0)" stroke="rgb(119,57,0)" points="53.3717075586319,162.94751915335655 43.72283399105072,154.99965853244066 50.24005043506622,149.06774553656578"></polygon><polygon fill="rgb(205,98,0)" stroke="rgb(205,98,0)" points="117.3888258934021,293.4512888789177 81.29330170154572,257.2467910647392 106.26291990280151,269.2218013703823"></polygon><polygon fill="rgb(247,132,25)" stroke="rgb(247,132,25)" points="62.04022407531738,182.02815710380673 115.9938508272171,170.81664242595434 84.96629190444946,211.94611505791545"></polygon><polygon fill="rgb(119,57,0)" stroke="rgb(119,57,0)" points="40.53813993930817,142.48348189890385 46.344066739082336,137.38632521033287 50.24005043506622,149.06774553656578"></polygon><polygon fill="rgb(119,57,0)" stroke="rgb(119,57,0)" points="85.89247906208038,108.53837426006794 101.19126069545746,157.41631656885147 46.344066739082336,137.38632521033287"></polygon><polygon fill="rgb(119,57,0)" stroke="rgb(119,57,0)" points="115.9938508272171,170.81664242595434 101.19126069545746,157.41631656885147 85.89247906208038,108.53837426006794"></polygon><polygon fill="rgb(228,119,25)" stroke="rgb(228,119,25)" points="338.703488945961,281.22879253327847 314.6312026977539,333.5828774869442 228.88081634044647,317.9999906718731"></polygon><polygon fill="rgb(119,57,0)" stroke="rgb(119,57,0)" points="46.344066739082336,137.38632521033287 26.422008633613586,95.6817142367363 85.89247906208038,108.53837426006794"></polygon><polygon fill="rgb(225,119,25)" stroke="rgb(225,119,25)" points="287.16499561071396,129.32384563982487 230.69867062568665,80.23800736665726 242.39938232302666,82.98521485924721"></polygon><polygon fill="rgb(247,132,25)" stroke="rgb(247,132,25)" points="84.96629190444946,211.94611505791545 106.26291990280151,269.2218013703823 81.29330170154572,257.2467910647392"></polygon><polygon fill="rgb(119,57,0)" stroke="rgb(119,57,0)" points="85.89247906208038,108.53837426006794 147.80301994085312,146.82525178790092 115.9938508272171,170.81664242595434"></polygon><polygon fill="rgb(228,119,25)" stroke="rgb(228,119,25)" points="115.9938508272171,170.81664242595434 147.80301994085312,146.82525178790092 137.24802803993225,230.98349232971668"></polygon><polygon fill="rgb(228,119,25)" stroke="rgb(228,119,25)" points="137.24802803993225,230.98349232971668 84.96629190444946,211.94611505791545 115.9938508272171,170.81664242595434"></polygon><polygon fill="rgb(228,119,25)" stroke="rgb(228,119,25)" points="228.88081634044647,317.9999906718731 252.71571099758148,291.31530088186264 338.703488945961,281.22879253327847"></polygon><polygon fill="rgb(205,98,0)" stroke="rgb(205,98,0)" points="228.88081634044647,317.9999906718731 208.94261864572763,290.16464257240295 252.71571099758148,291.31530088186264"></polygon><polygon fill="rgb(228,116,36)" stroke="rgb(228,116,36)" points="84.96629190444946,211.94611505791545 105.59238749742508,244.26745715737343 106.26291990280151,269.2218013703823"></polygon><polygon fill="rgb(225,119,25)" stroke="rgb(225,119,25)" points="330.9012894630432,205.214040460065 325.6570301055908,198.3259768858552 287.16499561071396,129.32384563982487"></polygon><polygon fill="rgb(192,172,157)" stroke="rgb(192,172,157)" points="153.0263843536377,359.99878591299057 228.88081634044647,317.9999906718731 206.5023187994957,332.3715085685253"></polygon><polygon fill="rgb(119,57,0)" stroke="rgb(119,57,0)" points="85.89247906208038,108.53837426006794 26.422008633613586,95.6817142367363 25.79492425918579,58.665826708078384"></polygon><polygon fill="rgb(205,98,0)" stroke="rgb(205,98,0)" points="105.59238749742508,244.26745715737343 84.96629190444946,211.94611505791545 137.24802803993225,230.98349232971668"></polygon><polygon fill="rgb(247,132,25)" stroke="rgb(247,132,25)" points="106.26291990280151,269.2218013703823 105.59238749742508,244.26745715737343 130.57233810424805,262.9670122265816"></polygon><polygon fill="rgb(247,132,25)" stroke="rgb(247,132,25)" points="192.48328429833055,151.7142037153244 147.80301994085312,146.82525178790092 144.15482515096664,75.23122325539589"></polygon><polygon fill="rgb(247,132,25)" stroke="rgb(247,132,25)" points="144.15482515096664,75.23122325539589 230.69867062568665,80.23800736665726 192.48328429833055,151.7142037153244"></polygon><polygon fill="rgb(228,119,25)" stroke="rgb(228,119,25)" points="147.80301994085312,146.82525178790092 25.79492425918579,58.665826708078384 144.15482515096664,75.23122325539589"></polygon><polygon fill="rgb(214,194,178)" stroke="rgb(214,194,178)" points="144.8254873752594,358.81689834594727 228.88081634044647,317.9999906718731 153.0263843536377,359.99878591299057"></polygon><polygon fill="rgb(214,194,178)" stroke="rgb(214,194,178)" points="228.88081634044647,317.9999906718731 144.8254873752594,358.81689834594727 139.6604529619217,339.2489252090454"></polygon><polygon fill="rgb(228,119,25)" stroke="rgb(228,119,25)" points="139.6604529619217,339.2489252090454 208.94261864572763,290.16464257240295 228.88081634044647,317.9999906718731"></polygon><polygon fill="rgb(36,51,67)" stroke="rgb(36,51,67)" points="130.57233810424805,262.9670122265816 105.59238749742508,244.26745715737343 124.73521935939789,239.48796494305134"></polygon><polygon fill="rgb(205,98,0)" stroke="rgb(205,98,0)" points="137.24802803993225,230.98349232971668 124.73521935939789,239.48796494305134 105.59238749742508,244.26745715737343"></polygon><polygon fill="rgb(247,132,25)" stroke="rgb(247,132,25)" points="246.130183249712,238.36176858097315 314.7706400156021,218.3603627718985 338.703488945961,281.22879253327847"></polygon><polygon fill="rgb(247,132,25)" stroke="rgb(247,132,25)" points="246.130183249712,238.36176858097315 338.703488945961,281.22879253327847 252.71571099758148,291.31530088186264"></polygon><polygon fill="rgb(192,172,157)" stroke="rgb(192,172,157)" points="206.5023187994957,332.3715085685253 149.80507251620293,369.41144728660583 153.0263843536377,359.99878591299057"></polygon><polygon fill="rgb(119,57,0)" stroke="rgb(119,57,0)" points="25.79492425918579,58.665826708078384 147.80301994085312,146.82525178790092 85.89247906208038,108.53837426006794"></polygon><polygon fill="rgb(247,132,25)" stroke="rgb(247,132,25)" points="102.45517766475677,329.9512993693352 106.26291990280151,269.2218013703823 130.57233810424805,262.9670122265816"></polygon><polygon fill="rgb(119,57,0)" stroke="rgb(119,57,0)" points="314.7706400156021,218.3603627718985 247.6254758834839,187.8937130253762 278.5456332564354,178.90306976810098"></polygon><polygon fill="rgb(119,57,0)" stroke="rgb(119,57,0)" points="325.6570301055908,198.3259768858552 314.7706400156021,218.3603627718985 278.5456332564354,178.90306976810098"></polygon><polygon fill="rgb(205,98,0)" stroke="rgb(205,98,0)" points="124.73521935939789,239.48796494305134 137.24802803993225,230.98349232971668 130.57233810424805,262.9670122265816"></polygon><polygon fill="rgb(119,57,0)" stroke="rgb(119,57,0)" points="325.6570301055908,198.3259768858552 278.5456332564354,178.90306976810098 330.35725378990173,182.53069470450282"></polygon><polygon fill="rgb(228,119,25)" stroke="rgb(228,119,25)" points="171.14007970690727,236.7968594133854 192.48328429833055,151.7142037153244 247.6254758834839,187.8937130253762"></polygon><polygon fill="rgb(119,57,0)" stroke="rgb(119,57,0)" points="278.5456332564354,178.90306976810098 335.71643829345703,169.42478471249342 330.35725378990173,182.53069470450282"></polygon><polygon fill="rgb(228,119,25)" stroke="rgb(228,119,25)" points="247.6254758834839,187.8937130253762 246.130183249712,238.36176858097315 171.14007970690727,236.7968594133854"></polygon><polygon fill="rgb(247,132,25)" stroke="rgb(247,132,25)" points="314.7706400156021,218.3603627718985 246.130183249712,238.36176858097315 247.6254758834839,187.8937130253762"></polygon><polygon fill="rgb(247,132,25)" stroke="rgb(247,132,25)" points="147.80301994085312,146.82525178790092 192.48328429833055,151.7142037153244 171.14007970690727,236.7968594133854"></polygon><polygon fill="rgb(247,132,25)" stroke="rgb(247,132,25)" points="171.14007970690727,236.7968594133854 137.24802803993225,230.98349232971668 147.80301994085312,146.82525178790092"></polygon><polygon fill="rgb(119,57,0)" stroke="rgb(119,57,0)" points="335.71643829345703,169.42478471249342 278.5456332564354,178.90306976810098 266.7592145204544,124.01871724426746"></polygon><polygon fill="rgb(119,57,0)" stroke="rgb(119,57,0)" points="266.7592145204544,124.01871724426746 278.5456332564354,178.90306976810098 247.6254758834839,187.8937130253762"></polygon><polygon fill="rgb(228,116,36)" stroke="rgb(228,116,36)" points="130.57233810424805,262.9670122265816 137.24802803993225,230.98349232971668 133.16610234975815,256.72257651388645"></polygon><polygon fill="rgb(119,57,0)" stroke="rgb(119,57,0)" points="247.6254758834839,187.8937130253762 192.48328429833055,151.7142037153244 266.7592145204544,124.01871724426746"></polygon><polygon fill="rgb(247,132,25)" stroke="rgb(247,132,25)" points="133.16610234975815,256.72257651388645 137.24802803993225,230.98349232971668 171.14007970690727,236.7968594133854"></polygon><polygon fill="rgb(228,116,36)" stroke="rgb(228,116,36)" points="133.16610234975815,256.72257651388645 106.85829305648804,328.1193887889385 130.57233810424805,262.9670122265816"></polygon><polygon fill="rgb(247,132,25)" stroke="rgb(247,132,25)" points="130.57233810424805,262.9670122265816 106.85829305648804,328.1193887889385 102.45517766475677,329.9512993693352"></polygon><polygon fill="rgb(247,132,25)" stroke="rgb(247,132,25)" points="208.94261864572763,290.16464257240295 174.67156139016151,271.5998860299587 212.418364495039,264.08050422370434"></polygon><polygon fill="rgb(247,132,25)" stroke="rgb(247,132,25)" points="252.71571099758148,291.31530088186264 208.94261864572763,290.16464257240295 246.130183249712,238.36176858097315"></polygon><polygon fill="rgb(119,57,0)" stroke="rgb(119,57,0)" points="314.7706400156021,218.3603627718985 325.6570301055908,198.3259768858552 330.9012894630432,205.214040460065"></polygon><polygon fill="rgb(228,116,36)" stroke="rgb(228,116,36)" points="246.130183249712,238.36176858097315 208.94261864572763,290.16464257240295 212.418364495039,264.08050422370434"></polygon><polygon fill="rgb(36,51,67)" stroke="rgb(36,51,67)" points="174.67156139016151,271.5998860299587 188.12725149840117,250.85736653208733 212.418364495039,264.08050422370434"></polygon><polygon fill="rgb(205,98,0)" stroke="rgb(205,98,0)" points="188.12725149840117,250.85736653208733 174.67156139016151,271.5998860299587 171.14007970690727,236.7968594133854"></polygon><polygon fill="rgb(247,132,25)" stroke="rgb(247,132,25)" points="171.14007970690727,236.7968594133854 163.44026604294777,262.49980272352695 133.16610234975815,256.72257651388645"></polygon><polygon fill="rgb(225,119,25)" stroke="rgb(225,119,25)" points="174.67156139016151,271.5998860299587 163.44026604294777,262.49980272352695 171.14007970690727,236.7968594133854"></polygon><polygon fill="rgb(205,98,0)" stroke="rgb(205,98,0)" points="212.418364495039,264.08050422370434 188.12725149840117,250.85736653208733 171.14007970690727,236.7968594133854"></polygon><polygon fill="rgb(205,98,0)" stroke="rgb(205,98,0)" points="171.14007970690727,236.7968594133854 246.130183249712,238.36176858097315 212.418364495039,264.08050422370434"></polygon><polygon fill="rgb(247,132,25)" stroke="rgb(247,132,25)" points="174.67156139016151,271.5998860299587 208.94261864572763,290.16464257240295 139.6604529619217,339.2489252090454"></polygon><polygon fill="rgb(247,132,25)" stroke="rgb(247,132,25)" points="133.16610234975815,256.72257651388645 163.44026604294777,262.49980272352695 134.55099284648895,334.9793613255024"></polygon><polygon fill="rgb(247,132,25)" stroke="rgb(247,132,25)" points="134.55099284648895,334.9793613255024 106.85829305648804,328.1193887889385 133.16610234975815,256.72257651388645"></polygon><polygon fill="rgb(228,116,36)" stroke="rgb(228,116,36)" points="163.44026604294777,262.49980272352695 174.67156139016151,271.5998860299587 134.55099284648895,334.9793613255024"></polygon><polygon fill="rgb(247,132,25)" stroke="rgb(247,132,25)" points="139.6604529619217,339.2489252090454 134.55099284648895,334.9793613255024 174.67156139016151,271.5998860299587"></polygon><polygon fill="rgb(119,57,0)" stroke="rgb(119,57,0)" points="325.6570301055908,198.3259768858552 330.35725378990173,182.53069470450282 336.7952688932419,191.5465023489669"></polygon><polygon fill="rgb(225,119,25)" stroke="rgb(225,119,25)" points="319.9658042192459,73.41956508159637 192.48328429833055,151.7142037153244 230.69867062568665,80.23800736665726"></polygon><polygon fill="rgb(192,172,157)" stroke="rgb(192,172,157)" points="112.36724728345871,359.309574842453 101.60334134101868,349.69617226719856 138.46873301267624,359.45872950553894"></polygon><polygon fill="rgb(192,172,157)" stroke="rgb(192,172,157)" points="138.46873301267624,359.45872950553894 149.80507251620293,369.41144728660583 112.36724728345871,359.309574842453"></polygon><polygon fill="rgb(119,57,0)" stroke="rgb(119,57,0)" points="341.54672384262085,177.16329278051853 330.35725378990173,182.53069470450282 335.71643829345703,169.42478471249342"></polygon><polygon fill="rgb(119,57,0)" stroke="rgb(119,57,0)" points="266.7592145204544,124.01871724426746 192.48328429833055,151.7142037153244 319.9658042192459,73.41956508159637"></polygon><polygon fill="rgb(192,172,157)" stroke="rgb(192,172,157)" points="144.8254873752594,358.81689834594727 153.0263843536377,359.99878591299057 149.80507251620293,369.41144728660583"></polygon><polygon fill="rgb(192,172,157)" stroke="rgb(192,172,157)" points="149.80507251620293,369.41144728660583 138.46873301267624,359.45872950553894 144.8254873752594,358.81689834594727"></polygon><polygon fill="rgb(119,57,0)" stroke="rgb(119,57,0)" points="266.7592145204544,124.01871724426746 345.89781725406647,121.06080548465252 335.71643829345703,169.42478471249342"></polygon><polygon fill="rgb(0,0,0)" stroke="rgb(0,0,0)" points="138.46873301267624,359.45872950553894 101.60334134101868,349.69617226719856 97.07865643501282,341.18235418200493"></polygon><polygon fill="rgb(0,0,0)" stroke="rgb(0,0,0)" points="102.45517766475677,329.9512993693352 106.85829305648804,328.1193887889385 99.72106146812439,338.90184929966927"></polygon><polygon fill="rgb(0,0,0)" stroke="rgb(0,0,0)" points="99.72106146812439,338.90184929966927 97.07865643501282,341.18235418200493 102.45517766475677,329.9512993693352"></polygon><polygon fill="rgb(0,0,0)" stroke="rgb(0,0,0)" points="139.6604529619217,339.2489252090454 144.8254873752594,358.81689834594727 138.46873301267624,359.45872950553894"></polygon><polygon fill="rgb(0,0,0)" stroke="rgb(0,0,0)" points="99.72106146812439,338.90184929966927 106.85829305648804,328.1193887889385 134.55099284648895,334.9793613255024"></polygon><polygon fill="rgb(119,57,0)" stroke="rgb(119,57,0)" points="319.9658042192459,73.41956508159637 345.89781725406647,121.06080548465252 266.7592145204544,124.01871724426746"></polygon><polygon fill="rgb(0,0,0)" stroke="rgb(0,0,0)" points="138.46873301267624,359.45872950553894 130.8201329112053,349.9325474500656 139.6604529619217,339.2489252090454"></polygon><polygon fill="rgb(0,0,0)" stroke="rgb(0,0,0)" points="97.07865643501282,341.18235418200493 130.8201329112053,349.9325474500656 138.46873301267624,359.45872950553894"></polygon><polygon fill="rgb(0,0,0)" stroke="rgb(0,0,0)" points="127.5055963397026,346.04555362463 130.8201329112053,349.9325474500656 97.07865643501282,341.18235418200493"></polygon><polygon fill="rgb(0,0,0)" stroke="rgb(0,0,0)" points="97.07865643501282,341.18235418200493 99.72106146812439,338.90184929966927 127.5055963397026,346.04555362463"></polygon><polygon fill="rgb(0,0,0)" stroke="rgb(0,0,0)" points="134.55099284648895,334.9793613255024 127.5055963397026,346.04555362463 99.72106146812439,338.90184929966927"></polygon><polygon fill="rgb(0,0,0)" stroke="rgb(0,0,0)" points="127.5055963397026,346.04555362463 134.55099284648895,334.9793613255024 139.6604529619217,339.2489252090454"></polygon><polygon fill="rgb(0,0,0)" stroke="rgb(0,0,0)" points="139.6604529619217,339.2489252090454 130.8201329112053,349.9325474500656 127.5055963397026,346.04555362463"></polygon></svg>